<html>
<head>
<meta charset="UTF-8">
<meta name="viewport" content="width=device-width, initial-scale=1.0"/>

<style>
.comment
{
    padding-left: 20px;
    margin-top: 4px;
    margin-right: 4px;
    margin-bottom: 4px;
    border: 2px #000 solid;
}
.submission
{
    border: 4px #00f solid;
    padding-left: 20px;
}
.hidden
{
    display: none;
}
</style>
</head>
<body><div class="submission" id="t3_67xnn4">
    <p class="userinfo">
        <a href="https://www.reddit.com/u/TheMrMcGibblets">TheMrMcGibblets</a>
        <span class="score"> | 82 points</span>
        <span class="timestamp"> | Apr 27 2017 18:44:27</span>
    </p>
    <strong>[MOVIES] Indiana Jones Trilogy (1981-1989) 1080p Bluray x265 HEVC 10bit AAC 5.1 [7.96GB]</strong>
    <p><p>Add mega</p>
<p>.nz/#F!QP53gKoa</p>
<p>!hO97-rlAQoYCK8xeZDhjyQ</p>
<blockquote>
<p><strong>Raiders of the Lost Ark (1981) 1080p Bluray x265 HEVC 10bit AAC 5.1 [2.26GB]</strong></p>
</blockquote>
<pre><code>General
Format : Matroska
Format version : Version 4 / Version 2
File size : 2.53 GiB
Duration : 1h 55mn
Overall bit rate : 3 146 Kbps
Encoded date : UTC 2016-09-23 02:31:33
Writing application : mkvmerge v9.2.0 (\'Photograph\') 64bit
Writing library : libebml v1.3.3 + libmatroska v1.4.4

Video
ID : 1
Format : HEVC
Format/Info : High Efficiency Video Coding
Format profile : Main 10@L4@Main
Codec ID : V_MPEGH/ISO/HEVC
Duration : 1h 55mn
Bit rate : 2 464 Kbps
Width : 1 920 pixels
Height : 816 pixels
Display aspect ratio : 2.35:1
Frame rate mode : Constant
Frame rate : 23.976 (24000/1001) fps
Color space : YUV
Chroma subsampling : 4:2:0
Bit depth : 10 bits
Bits/(Pixel*Frame) : 0.066
Stream size : 1.98 GiB (78%)
Writing library : x265 2.0+54-e5ca9b210223:[Windows][GCC 6.1.0][64 bit] 10bit
Encoding settings : wpp / ctu=64 / min-cu-size=8 / max-tu-size=32 / tu-intra-depth=1 / tu-inter-depth=1 / me=1 / subme=2 / merange=57 / no-rect / no-amp / max-merge=2 / temporal-mvp / no-early-skip / rskip / rdpenalty=0 / no-tskip / no-tskip-fast / strong-intra-smoothing / no-lossless / no-cu-lossless / no-constrained-intra / no-fast-intra / open-gop / no-temporal-layers / interlace=0 / keyint=250 / min-keyint=23 / scenecut=40 / rc-lookahead=20 / lookahead-slices=5 / bframes=4 / bframe-bias=0 / b-adapt=2 / ref=3 / limit-refs=3 / no-limit-modes / weightp / no-weightb / aq-mode=1 / qg-size=32 / aq-strength=1.00 / cbqpoffs=0 / crqpoffs=0 / rd=3 / psy-rd=2.00 / rdoq-level=0 / psy-rdoq=0.00 / log2-max-poc-lsb=8 / no-rd-refine / signhide / deblock=0:0 / sao / no-sao-non-deblock / b-pyramid / cutree / no-intra-refresh / rc=2 / pass / bitrate=2463 / qcomp=0.60 / qpmin=0 / qpmax=69 / qpstep=4 / cplxblur=20.0 / qblur=0.5 / ipratio=1.40 / pbratio=1.30
Default : Yes
Forced : No

Audio #1
ID : 2
Format : AAC
Format/Info : Advanced Audio Codec
Format profile : LC
Codec ID : A_AAC
Duration : 1h 55mn
Bit rate : 336 Kbps
Channel(s) : 6 channels
Channel positions : Front: L C R, Side: L R, LFE
Sampling rate : 48.0 KHz
Frame rate : 46.875 fps (1024 spf)
Compression mode : Lossy
Delay relative to video : 20ms
Stream size : 277 MiB (11%)
Language : English
Default : Yes
Forced : No

Audio #2
ID : 3
Format : AAC
Format/Info : Advanced Audio Codec
Format profile : LC
Codec ID : A_AAC
Duration : 1h 55mn
Bit rate : 338 Kbps
Channel(s) : 6 channels
Channel positions : Front: L C R, Side: L R, LFE
Sampling rate : 48.0 KHz
Frame rate : 46.875 fps (1024 spf)
Compression mode : Lossy
Delay relative to video : 20ms
Stream size : 279 MiB (11%)
Language : German
Default : No
Forced : No
</code></pre>
<blockquote>
<p><strong>Indiana Jones and the Temple of Doom (1984) 1080p Bluray x265 HEVC 10bit AAC 5.1 [2.75GB]</strong></p>
</blockquote>
<pre><code>General
Format : Matroska
Format version : Version 4 / Version 2
File size : 2.75 GiB
Duration : 1h 58mn
Overall bit rate : 3 326 Kbps
Encoded date : UTC 2016-09-23 16:58:40
Writing application : mkvmerge v9.2.0 (\'Photograph\') 64bit
Writing library : libebml v1.3.3 + libmatroska v1.4.4

Video
ID : 1
Format : HEVC
Format/Info : High Efficiency Video Coding
Format profile : Main 10@L4@Main
Codec ID : V_MPEGH/ISO/HEVC
Duration : 1h 58mn
Bit rate : 2 982 Kbps
Width : 1 920 pixels
Height : 816 pixels
Display aspect ratio : 2.35:1
Frame rate mode : Constant
Frame rate : 23.976 (24000/1001) fps
Color space : YUV
Chroma subsampling : 4:2:0
Bit depth : 10 bits
Bits/(Pixel*Frame) : 0.079
Stream size : 2.47 GiB (90%)
Writing library : x265 2.0+54-e5ca9b210223:[Windows][GCC 6.1.0][64 bit] 10bit
Encoding settings : wpp / ctu=64 / min-cu-size=8 / max-tu-size=32 / tu-intra-depth=1 / tu-inter-depth=1 / me=1 / subme=2 / merange=57 / no-rect / no-amp / max-merge=2 / temporal-mvp / no-early-skip / rskip / rdpenalty=0 / no-tskip / no-tskip-fast / strong-intra-smoothing / no-lossless / no-cu-lossless / no-constrained-intra / no-fast-intra / open-gop / no-temporal-layers / interlace=0 / keyint=250 / min-keyint=23 / scenecut=40 / rc-lookahead=20 / lookahead-slices=5 / bframes=4 / bframe-bias=0 / b-adapt=2 / ref=3 / limit-refs=3 / no-limit-modes / weightp / no-weightb / aq-mode=1 / qg-size=32 / aq-strength=1.00 / cbqpoffs=0 / crqpoffs=0 / rd=3 / psy-rd=2.00 / rdoq-level=0 / psy-rdoq=0.00 / log2-max-poc-lsb=8 / no-rd-refine / signhide / deblock=0:0 / sao / no-sao-non-deblock / b-pyramid / cutree / no-intra-refresh / rc=2 / pass / bitrate=2982 / qcomp=0.60 / qpmin=0 / qpmax=69 / qpstep=4 / cplxblur=20.0 / qblur=0.5 / ipratio=1.40 / pbratio=1.30
Default : Yes
Forced : No

Audio
ID : 2
Format : AAC
Format/Info : Advanced Audio Codec
Format profile : LC
Codec ID : A_AAC
Duration : 1h 58mn
Bit rate : 337 Kbps
Channel(s) : 6 channels
Channel positions : Front: L C R, Side: L R, LFE
Sampling rate : 48.0 KHz
Frame rate : 46.875 fps (1024 spf)
Compression mode : Lossy
Delay relative to video : 20ms
Stream size : 285 MiB (10%)
Language : English
Default : Yes
Forced : No
</code></pre>
<blockquote>
<p><strong>Indiana Jones and the Last Crusade (1989) 1080p Bluray x265 HEVC 10bit AAC 5.1 [2.95GB]</strong></p>
</blockquote>
<pre><code>General
Format : Matroska
Format version : Version 4 / Version 2
File size : 2.95 GiB
Duration : 2h 6mn
Overall bit rate : 3 327 Kbps
Encoded date : UTC 2016-09-23 23:56:35
Writing application : mkvmerge v9.2.0 (\'Photograph\') 64bit
Writing library : libebml v1.3.3 + libmatroska v1.4.4

Video
ID : 1
Format : HEVC
Format/Info : High Efficiency Video Coding
Format profile : Main 10@L4@Main
Codec ID : V_MPEGH/ISO/HEVC
Duration : 2h 6mn
Bit rate : 2 970 Kbps
Width : 1 920 pixels
Height : 816 pixels
Display aspect ratio : 2.35:1
Frame rate mode : Constant
Frame rate : 23.976 (24000/1001) fps
Color space : YUV
Chroma subsampling : 4:2:0
Bit depth : 10 bits
Bits/(Pixel*Frame) : 0.079
Stream size : 2.63 GiB (89%)
Writing library : x265 2.0+54-e5ca9b210223:[Windows][GCC 6.1.0][64 bit] 10bit
Encoding settings : wpp / ctu=64 / min-cu-size=8 / max-tu-size=32 / tu-intra-depth=1 / tu-inter-depth=1 / me=1 / subme=2 / merange=57 / no-rect / no-amp / max-merge=2 / temporal-mvp / no-early-skip / rskip / rdpenalty=0 / no-tskip / no-tskip-fast / strong-intra-smoothing / no-lossless / no-cu-lossless / no-constrained-intra / no-fast-intra / open-gop / no-temporal-layers / interlace=0 / keyint=250 / min-keyint=23 / scenecut=40 / rc-lookahead=20 / lookahead-slices=5 / bframes=4 / bframe-bias=0 / b-adapt=2 / ref=3 / limit-refs=3 / no-limit-modes / weightp / no-weightb / aq-mode=1 / qg-size=32 / aq-strength=1.00 / cbqpoffs=0 / crqpoffs=0 / rd=3 / psy-rd=2.00 / rdoq-level=0 / psy-rdoq=0.00 / log2-max-poc-lsb=8 / no-rd-refine / signhide / deblock=0:0 / sao / no-sao-non-deblock / b-pyramid / cutree / no-intra-refresh / rc=2 / pass / bitrate=2970 / qcomp=0.60 / qpmin=0 / qpmax=69 / qpstep=4 / cplxblur=20.0 / qblur=0.5 / ipratio=1.40 / pbratio=1.30
Default : Yes
Forced : No

Audio
ID : 2
Format : AAC
Format/Info : Advanced Audio Codec
Format profile : LC
Codec ID : A_AAC
Duration : 2h 6mn
Bit rate : 353 Kbps
Channel(s) : 6 channels
Channel positions : Front: L C R, Side: L R, LFE
Sampling rate : 48.0 KHz
Frame rate : 46.875 fps (1024 spf)
Compression mode : Lossy
Delay relative to video : 20ms
Stream size : 315 MiB (10%)
Language : English
Default : Yes
Forced : No
</code></pre>
<blockquote>
<p>Uploaded trilogy per requests on this weeks request thread</p>
</blockquote></p>
    <p class="toolbar">
        <a href="https://www.reddit.com/r/megalinks/comments/67xnn4">permalink</a>
    </p>
</div>
<div class="comment" id="t1_dgucwv1">
    <p class="userinfo">
        <a
        class="toggle_hide_button"
        href="javascript:void(0)"
        onclick="toggle_collapse(this.parentElement.parentElement)">[-]
        </a>
        <a href="https://www.reddit.com/u/agrizzlyadventure">agrizzlyadventure</a>
        <span class="score"> | 2 points</span>
        <span class="timestamp"> | Apr 27 2017 22:41:45</span>
    </p>
    <div class="collapsible">
        <p>fantastic upload, thanks alot for putting this up!</p>
        <p class="toolbar">
            <a href="https://www.reddit.com/r/megalinks/comments/67xnn4/_/dgucwv1">permalink</a>
        </p>
        
    </div>
</div>

<div class="comment" id="t1_dguk4g0">
    <p class="userinfo">
        <a
        class="toggle_hide_button"
        href="javascript:void(0)"
        onclick="toggle_collapse(this.parentElement.parentElement)">[-]
        </a>
        <a href="https://www.reddit.com/u/thesunmustdie">thesunmustdie</a>
        <span class="score"> | 2 points</span>
        <span class="timestamp"> | Apr 28 2017 01:05:42</span>
    </p>
    <div class="collapsible">
        <p>Awesome. I'm glad they left it as a trilogy and didn't decide to make a fourth one (if I tell myself that enough I might eventually believe it).</p>
        <p class="toolbar">
            <a href="https://www.reddit.com/r/megalinks/comments/67xnn4/_/dguk4g0">permalink</a>
        </p>
        <div class="comment" id="t1_dgul7uv">
    <p class="userinfo">
        <a
        class="toggle_hide_button"
        href="javascript:void(0)"
        onclick="toggle_collapse(this.parentElement.parentElement)">[-]
        </a>
        <a href="https://www.reddit.com/u/TheMrMcGibblets">TheMrMcGibblets</a>
        <span class="score"> | 4 points</span>
        <span class="timestamp"> | Apr 28 2017 01:24:40</span>
    </p>
    <div class="collapsible">
        <p>So true. I thought about adding the fourth one when I uploaded but then came to my senses and left it out where it belongs.</p>
        <p class="toolbar">
            <a href="https://www.reddit.com/r/megalinks/comments/67xnn4/_/dgul7uv">permalink</a>
        </p>
        <div class="comment" id="t1_dgvaaen">
    <p class="userinfo">
        <a
        class="toggle_hide_button"
        href="javascript:void(0)"
        onclick="toggle_collapse(this.parentElement.parentElement)">[-]
        </a>
        <a href="https://www.reddit.com/u/puffpants">puffpants</a>
        <span class="score"> | 1 points</span>
        <span class="timestamp"> | Apr 28 2017 15:09:05</span>
    </p>
    <div class="collapsible">
        <p>good man</p>
        <p class="toolbar">
            <a href="https://www.reddit.com/r/megalinks/comments/67xnn4/_/dgvaaen">permalink</a>
        </p>
        
    </div>
</div>
    </div>
</div>
    </div>
</div>

<div class="comment" id="t1_dgu16qe">
    <p class="userinfo">
        <a
        class="toggle_hide_button"
        href="javascript:void(0)"
        onclick="toggle_collapse(this.parentElement.parentElement)">[-]
        </a>
        [deleted]
        <span class="score"> | 1 points</span>
        <span class="timestamp"> | Apr 27 2017 19:02:32</span>
    </p>
    <div class="collapsible">
        <p>Thanks! Will download when I get home.</p>
        <p class="toolbar">
            <a href="https://www.reddit.com/r/megalinks/comments/67xnn4/_/dgu16qe">permalink</a>
        </p>
        
    </div>
</div>

<div class="comment" id="t1_dgu6fcc">
    <p class="userinfo">
        <a
        class="toggle_hide_button"
        href="javascript:void(0)"
        onclick="toggle_collapse(this.parentElement.parentElement)">[-]
        </a>
        <a href="https://www.reddit.com/u/theeminent1">theeminent1</a>
        <span class="score"> | 1 points</span>
        <span class="timestamp"> | Apr 27 2017 20:35:43</span>
    </p>
    <div class="collapsible">
        <p>Thanks!</p>
        <p class="toolbar">
            <a href="https://www.reddit.com/r/megalinks/comments/67xnn4/_/dgu6fcc">permalink</a>
        </p>
        
    </div>
</div>

<div class="comment" id="t1_dgu6vc5">
    <p class="userinfo">
        <a
        class="toggle_hide_button"
        href="javascript:void(0)"
        onclick="toggle_collapse(this.parentElement.parentElement)">[-]
        </a>
        <a href="https://www.reddit.com/u/cyberdoggy">cyberdoggy</a>
        <span class="score"> | 1 points</span>
        <span class="timestamp"> | Apr 27 2017 20:43:31</span>
    </p>
    <div class="collapsible">
        <p>Thanks for the Trilogy in x265</p>
        <p class="toolbar">
            <a href="https://www.reddit.com/r/megalinks/comments/67xnn4/_/dgu6vc5">permalink</a>
        </p>
        
    </div>
</div>

<div class="comment" id="t1_dgub7nj">
    <p class="userinfo">
        <a
        class="toggle_hide_button"
        href="javascript:void(0)"
        onclick="toggle_collapse(this.parentElement.parentElement)">[-]
        </a>
        <a href="https://www.reddit.com/u/dosemeele">dosemeele</a>
        <span class="score"> | 1 points</span>
        <span class="timestamp"> | Apr 27 2017 22:05:39</span>
    </p>
    <div class="collapsible">
        <p>Thank you!</p>
        <p class="toolbar">
            <a href="https://www.reddit.com/r/megalinks/comments/67xnn4/_/dgub7nj">permalink</a>
        </p>
        
    </div>
</div>

<div class="comment" id="t1_dgvaana">
    <p class="userinfo">
        <a
        class="toggle_hide_button"
        href="javascript:void(0)"
        onclick="toggle_collapse(this.parentElement.parentElement)">[-]
        </a>
        <a href="https://www.reddit.com/u/puffpants">puffpants</a>
        <span class="score"> | 1 points</span>
        <span class="timestamp"> | Apr 28 2017 15:09:12</span>
    </p>
    <div class="collapsible">
        <p>Thanks</p>
        <p class="toolbar">
            <a href="https://www.reddit.com/r/megalinks/comments/67xnn4/_/dgvaana">permalink</a>
        </p>
        
    </div>
</div>
</body>

<script>
function toggle_collapse(comment_div)
{
    var button = comment_div.getElementsByClassName("toggle_hide_button")[0];
    var collapsible = comment_div.getElementsByClassName("collapsible")[0];
    if (collapsible.classList.contains("hidden"))
    {
        collapsible.classList.remove("hidden");
        button.innerText = "[-]";
    }
    else
    {
        collapsible.classList.add("hidden");
        button.innerText = "[+]";
    }
}
</script>
</html>
